HIERARCHY
ROOT Hips
{
	OFFSET 0.0000 0.0000 0.0000
	CHANNELS 6 Xposition Yposition Zposition Zrotation Xrotation Yrotation
	JOINT Ab
	{
		OFFSET -0.0000 8.1305 -0.0000
		CHANNELS 3 Zrotation Xrotation Yrotation
		JOINT Chest
		{
			OFFSET -0.0000 26.2902 -0.0000
			CHANNELS 3 Zrotation Xrotation Yrotation
			JOINT Neck
			{
				OFFSET -0.0000 26.2902 0.0000
				CHANNELS 3 Zrotation Xrotation Yrotation
				JOINT Head
				{
					OFFSET -0.0000 10.8167 0.0000
					CHANNELS 3 Zrotation Xrotation Yrotation
					End Site
					{
						OFFSET -0.0000 16.7167 0.0000
					}
				}
			}
			JOINT LeftCollar
			{
				OFFSET -0.0000 26.2902 0.0000
				CHANNELS 3 Zrotation Xrotation Yrotation
				JOINT LeftShoulder
				{
					OFFSET 19.6667 -0.0000 0.0000
					CHANNELS 3 Zrotation Xrotation Yrotation
					JOINT LeftElbow
					{
						OFFSET 27.2190 0.0000 0.0000
						CHANNELS 3 Zrotation Xrotation Yrotation
						JOINT LeftWrist
						{
							OFFSET 30.7431 0.0000 0.0000
							CHANNELS 3 Zrotation Xrotation Yrotation
							End Site
							{
								OFFSET 0.0000 -14.7500 0.0000
							}
						}
					}
				}
			}
			JOINT RightCollar
			{
				OFFSET -0.0000 26.2902 0.0000
				CHANNELS 3 Zrotation Xrotation Yrotation
				JOINT RightShoulder
				{
					OFFSET -19.6667 0.0000 0.0000
					CHANNELS 3 Zrotation Xrotation Yrotation
					JOINT RightElbow
					{
						OFFSET -27.2190 0.0000 0.0000
						CHANNELS 3 Zrotation Xrotation Yrotation
						JOINT RightWrist
						{
							OFFSET -30.7431 0.0000 0.0000
							CHANNELS 3 Zrotation Xrotation Yrotation
							End Site
							{
								OFFSET -0.0000 -14.7500 0.0000
							}
						}
					}
				}
			}
		}
	}
	JOINT LeftHip
	{
		OFFSET 11.8000 0.0000 0.0000
		CHANNELS 3 Zrotation Xrotation Yrotation
		JOINT LeftKnee
		{
			OFFSET -0.0000 -39.7832 0.0000
			CHANNELS 3 Zrotation Xrotation Yrotation
			JOINT LeftAnkle
			{
				OFFSET -0.0000 -41.7317 0.0000
				CHANNELS 3 Zrotation Xrotation Yrotation
				End Site
				{
					OFFSET -0.0000 -4.9167 16.7167
				}
			}
		}
	}
	JOINT RightHip
	{
		OFFSET -11.8000 0.0000 0.0000
		CHANNELS 3 Zrotation Xrotation Yrotation
		JOINT RightKnee
		{
			OFFSET -0.0000 -39.7832 0.0000
			CHANNELS 3 Zrotation Xrotation Yrotation
			JOINT RightAnkle
			{
				OFFSET -0.0000 -41.7317 0.0000
				CHANNELS 3 Zrotation Xrotation Yrotation
				End Site
				{
					OFFSET -0.0000 -4.9167 16.7167
				}
			}
		}
	}
}
MOTION
Frames: 12
Frame Time: 0.010000
-19.0025 96.9075 174.0645 357.3790 355.8183 177.3756 356.6698 347.8151 0.1940 3.2934 8.8324 0.2956 3.6166 356.1363 1.6969 352.2352 1.0526 1.6436 337.1558 357.2498 13.5276 324.7935 59.4734 335.4670 6.9806 357.8424 325.2580 89.2629 2.3514 347.1207 26.8596 356.0848 343.7818 46.6846 45.6997 3.3015 342.3396 354.3655 35.3036 272.9058 356.1959 14.3293 355.3695 1.9533 0.5475 358.1411 6.4219 9.6336 352.5304 350.8448 10.0405 356.6762 3.2818 8.3479 6.5679 8.2605 10.4790 348.3569 344.1283 315.3331 
-19.0024 96.9016 174.0334 357.3840 355.7846 177.3405 356.6834 347.7947 0.2133 3.2963 8.8764 0.3132 3.5953 356.1339 1.6960 352.2487 1.0743 1.6483 337.1459 357.2271 13.5768 324.9439 59.5215 335.3022 6.9500 357.8395 325.2816 89.2535 2.3685 347.1091 26.8672 356.1032 343.7986 46.6302 45.6271 3.2987 342.4633 354.3934 35.3851 272.8435 356.1759 14.5050 355.3812 1.9591 0.5348 358.1159 6.4002 9.6334 352.5072 350.8154 10.0866 356.6767 3.2740 8.4203 6.5782 8.2331 10.4308 348.3605 344.1269 315.3396 
-19.0020 96.8986 174.0020 357.3851 355.7620 177.3248 356.7396 347.8077 0.2019 3.2064 8.8722 0.3033 3.6392 356.1624 1.6994 352.2269 1.1036 1.6525 337.1409 357.2547 13.5755 325.0055 59.4298 335.3098 6.8113 357.8875 325.2533 89.2827 2.3618 347.0070 26.9205 356.1083 343.8060 46.5675 45.6336 3.3017 342.5064 354.3754 35.4268 272.8746 356.2165 14.6116 355.3799 1.9546 0.4749 358.1155 6.4110 9.6319 352.5574 350.7463 10.1385 356.6831 3.2798 8.4052 6.5564 8.2183 10.4473 348.3708 344.0952 315.3563 
-19.0010 96.8941 173.9748 357.3820 355.7319 177.3118 356.7337 347.8117 0.2097 3.2153 8.8626 0.3040 3.6333 356.2796 1.7118 352.2152 1.0398 1.6650 337.0955 357.2150 13.5778 325.0680 59.3988 335.3074 6.8160 357.8842 325.2561 89.2864 2.3571 346.9983 26.9464 356.1300 343.8433 46.4805 45.5985 3.3060 342.5743 354.3992 35.4868 272.8890 356.1898 14.6869 355.3783 1.9445 0.4070 358.1024 6.4108 9.7293 352.4721 350.7196 10.1223 356.6768 3.2738 8.3999 6.5539 8.2115 10.5108 348.3552 344.0772 315.3151 
-18.9975 96.8915 173.9441 357.3799 355.6895 177.2860 356.7296 347.8004 0.2171 3.2123 8.8676 0.3113 3.6801 356.3052 1.7349 352.2095 1.0633 1.6873 337.0972 357.2561 13.5916 325.1188 59.3632 335.2484 6.7182 357.9279 325.2653 89.2877 2.3394 346.9412 26.9555 356.0917 343.8581 46.4513 45.5743 3.2865 342.5891 354.3754 35.5571 272.9190 356.1498 14.8456 355.3837 1.9108 0.3441 358.0921 6.4422 9.7013 352.5050 350.6454 10.2005 356.6759 3.2499 8.4431 6.5515 8.2054 10.5233 348.3815 344.0178 315.2864 
-18.9908 96.8871 173.9032 357.3894 355.6638 177.2642 356.7098 347.7856 0.2258 3.2505 8.9037 0.3195 3.7015 356.3092 1.7343 352.1873 1.1018 1.6907 337.1041 357.2290 13.5892 325.0861 59.3727 335.2501 6.8289 357.8512 325.2764 89.1291 2.3275 346.9310 26.9428 356.1245 343.8279 46.3915 45.6044 3.3337 342.6413 354.4125 35.6178 272.9667 356.1567 14.9169 355.4040 1.9052 0.2619 358.0607 6.4719 9.7094 352.2161 350.3933 10.2992 356.6878 3.2634 8.5138 6.5463 8.1782 10.5265 348.3875 343.9675 315.2340 
-18.9889 96.8822 173.8739 357.3832 355.6216 177.2466 356.7036 347.8145 0.2252 3.2555 8.8633 0.3236 3.7316 356.3330 1.7396 352.1281 1.1113 1.6959 337.1175 357.2322 13.6000 325.0452 59.3953 335.2796 6.8446 357.8743 325.2447 89.1117 2.3254 346.9692 26.9531 356.0858 343.8041 46.3325 45.6415 3.3462 342.6185 354.3541 35.7116 272.9482 356.1859 14.8654 355.4084 1.8627 0.1804 358.0305 6.5261 9.7145 352.1700 350.2834 10.3604 356.6795 3.2173 8.5574 6.5578 8.2241 10.4915 348.4076 343.8631 315.2232 
-18.9888 96.8821 173.8266 357.3641 355.6018 177.2187 356.6893 347.8047 0.2296 3.2615 8.9052 0.3224 3.7194 356.2946 1.7525 352.1040 1.1813 1.7146 337.1308 357.2066 13.6222 324.9909 59.4177 335.2953 6.9377 357.8339 325.2323 88.9967 2.3275 346.9463 26.9651 356.1029 343.8272 46.3200 45.5680 3.3029 342.7405 354.3927 35.7869 272.1838 356.5023 15.9575 355.3920 1.8629 0.0641 358.0118 6.5699 9.7181 352.2187 350.1675 10.4769 356.6562 3.1365 8.0080 6.4880 8.4825 11.1215 348.3926 343.6684 315.1455 
-18.9852 96.8793 173.7954 357.3543 355.5301 177.2126 356.7012 347.7958 0.2170 3.2241 8.8673 0.3146 3.6998 356.3332 1.7510 352.1519 1.1766 1.7112 337.1396 357.2087 13.6011 324.8587 59.3425 335.4482 6.8720 357.8378 325.2006 89.1363 2.3187 346.8932 27.0277 356.1205 343.8299 46.2586 45.4921 3.2818 342.7980 354.3918 35.9281 272.1911 356.5127 16.0605 355.3911 1.7627 359.9445 357.9936 6.6879 9.7169 352.1839 350.0535 10.5826 356.6413 3.0589 8.0881 6.5097 8.5623 11.0714 348.4437 343.4626 315.0983 
-18.9836 96.8756 173.7447 357.3492 355.5178 177.1865 356.7206 347.8229 0.2156 3.1866 8.8465 0.3197 3.7287 356.4255 1.7710 352.1229 1.1256 1.7328 337.1347 357.2076 13.6031 324.8158 59.2747 335.5248 6.8259 357.8280 325.1779 89.0819 2.3273 346.8233 27.0633 356.0811 343.8797 46.2794 45.4274 3.1765 342.7815 354.3453 36.0960 272.2379 356.5263 16.0952 355.3928 1.7284 359.8083 357.9562 6.8216 9.7435 351.9628 349.8686 10.7076 356.6103 3.0414 8.1611 6.5713 8.6658 11.0628 348.3727 343.2501 314.9903 
-18.9827 96.8687 173.7063 357.3244 355.4723 177.1498 356.6693 347.8223 0.2338 3.2349 8.8627 0.3384 3.7341 356.3895 1.7810 352.0695 1.1588 1.7421 337.1209 357.2042 13.5995 324.7507 59.1984 335.5841 6.8205 357.8659 325.1479 89.1377 2.3082 346.8786 27.0782 356.1059 343.8775 46.1844 45.3004 3.1923 342.9143 354.3996 36.3268 272.1512 356.5717 16.1864 355.3672 1.6257 359.6809 357.9530 7.0134 9.7303 351.9369 349.6380 10.8221 356.5633 2.8793 7.7649 6.5674 9.0391 11.5612 348.4586 342.7798 314.8489 
-18.9842 96.8703 173.6452 357.2810 355.4703 177.0885 356.6064 347.8304 0.2564 3.2864 8.9232 0.3579 3.6515 356.3497 1.7840 352.1323 1.1434 1.7461 337.0739 357.2281 13.6155 324.8283 59.1023 335.4987 6.7146 357.8979 325.1214 89.1863 2.2936 346.8512 27.0676 356.0678 343.8547 46.1199 45.2504 3.2362 342.8585 354.3160 36.5986 272.9324 356.3809 15.2045 355.3235 1.6735 358.8968 357.8513 6.9967 10.3690 351.8314 349.4593 11.1005 356.4673 2.8262 7.8784 6.6740 9.2540 11.6072 348.4348 342.2886 314.7215 
